<svg viewBox="0 0 264 280" xmlns="http://www.w3.org/2000/svg" xmlns:xlink="http://www.w3.org/1999/xlink">
  <defs>
    <path d="M124 144.6V163h4a72 72 0 0172 72v9H0v-9a72 72 0 0172-72h4v-18.4A56 56 0 0144.3 100 12 12 0 0134 88V74a12 12 0 0110-11.8V56a56 56 0 11112 0v6.2A12 12 0 01166 74v14c0 6-4.5 11-10.3 11.9a56 56 0 01-31.7 44.7z" id="a"/>
  </defs>
  <g fill="none" fill-rule="evenodd">
    <g mask="url(#mask-4)">
      <g transform="translate(32 36)">
        <mask id="b" fill="#fff">
          <use xlink:href="#a"/>
        </mask>
        <use fill="#D0C6AC" xlink:href="#a"/>
        <g mask="url(#b)" fill="#EDB98A">
          <path d="M-32 0h264v244H-32z"/>
        </g>
        <path d="M156 79v23a56 56 0 11-112 0V79v15a56 56 0 10112 0V79z" fill-opacity=".1" fill="#000" mask="url(#b)"/>
      </g>
      <g transform="translate(0 170)">
        <defs>
          <path d="M166 29.3c37 3 66 34 66 71.8v8.9H32v-9a72 72 0 0167-71.8v1.1c0 12 15 21.5 33.5 21.5S166 42.2 166 30.3v-1z" id="c"/>
        </defs>
        <mask id="d" fill="#fff">
          <use xlink:href="#c"/>
        </mask>
        <use fill="#E6E6E6" xlink:href="#c"/>
        <g mask="url(#d)" fill="#25557C">
          <path d="M0 0h264v110H0z"/>
        </g>
        <g opacity=".6" mask="url(#d)" fill-opacity=".2" fill="#000">
          <ellipse cx="40.5" cy="27.8" rx="39.6" ry="26.9" transform="translate(92 4)"/>
        </g>
      </g>
      <g fill="#000">
        <g transform="translate(78 134)">
          <defs>
            <path d="M35.1 15.1a19 19 0 0037.8 0c0-.8-.8-2.1-1.9-2.1H37c-1 0-2 1.2-1.9 2.1z" id="e"/>
          </defs>
          <mask id="f" fill="#fff">
            <use xlink:href="#e"/>
          </mask>
          <use fill-opacity=".7" xlink:href="#e"/>
          <rect fill="#FFF" mask="url(#f)" x="39" y="2" width="31" height="16" rx="5"/>
          <g mask="url(#f)" fill="#FF4F6D">
            <g transform="translate(38 24)">
              <circle cx="11" cy="11" r="11"/>
              <circle cx="21" cy="11" r="11"/>
            </g>
          </g>
        </g>
        <path d="M120 130c0 4.4 5.4 8 12 8s12-3.6 12-8" fill-opacity=".2"/>
        <g transform="translate(76 90)" fill-opacity=".6">
          <circle cx="30" cy="22" r="6"/>
          <circle cx="82" cy="22" r="6"/>
        </g>
        <g fill-opacity=".6">
          <path d="M102.5 88.1c-5.8.3-15.1 4.5-15 10.4.1.2.4.3.5.1 2.8-3 22.3-6 29.2-4.3.7.1 1.1-.5.7-1-3.4-3.8-10.2-5.4-15.4-5.2"/>
          <path d="M162.5 88.1c5.8.3 15.1 4.5 15 10.4-.1.2-.4.3-.5.1-2.8-3-22.3-6-29.2-4.3-.7.1-1.1-.5-.7-1 3.4-3.8 10.2-5.4 15.4-5.2"/>
        </g>
      </g>
      <defs>
        <path id="g" d="M0 0h264v280H0z"/>
        <path d="M115 28.3l-3 .7c-15 3.8-24 14.7-31.6 30.6-3.8 7.9-6 17.2-6.4 25.9-.1 3.4.3 7 1.3 10.2.3 1.2 2.1 5.4 2.6 2 .2-1.1-.4-2.7-.5-3.9a40.5 40.5 0 017.4-25c6.4-8.3 11-25.6 48.2-27.1 37.2-1.6 48.7 25.8 52.2 31.6 4 7 2.2 15.4 3.4 22.9.5 2.9 1.6 2.8 2.2.2 1-4.3 1.4-8.8 1.1-13.2-.7-10-4.4-36.5-24.6-48.2a65.5 65.5 0 00-16.2-6.7c3-3 4.9-6.7 4.9-10.8C156 7.8 145.7 0 133 0s-23 7.8-23 17.5c0 4 1.8 7.9 5 10.8z" id="i"/>
      </defs>
      <mask id="h" fill="#fff">
        <use xlink:href="#g"/>
      </mask>
      <g mask="url(#h)">
        <g transform="translate(-1)">
          <mask id="j" fill="#fff">
            <use xlink:href="#i"/>
          </mask>
          <use fill="#28354B" xlink:href="#i"/>
          <g mask="url(#j)" fill="#A55728">
            <path d="M0 0h264v280H0z"/>
          </g>
        </g>
      </g>
    </g>
  </g>
</svg>