<svg viewBox="0 0 264 280" xmlns="http://www.w3.org/2000/svg" xmlns:xlink="http://www.w3.org/1999/xlink">
  <defs>
    <path d="M124 144.6V163h4a72 72 0 0172 72v9H0v-9a72 72 0 0172-72h4v-18.4A56 56 0 0144.3 100 12 12 0 0134 88V74a12 12 0 0110-11.8V56a56 56 0 11112 0v6.2A12 12 0 01166 74v14c0 6-4.5 11-10.3 11.9a56 56 0 01-31.7 44.7z" id="a"/>
  </defs>
  <g fill="none" fill-rule="evenodd">
    <g mask="url(#mask-4)">
      <g transform="translate(32 36)">
        <mask id="b" fill="#fff">
          <use xlink:href="#a"/>
        </mask>
        <use fill="#D0C6AC" xlink:href="#a"/>
        <g mask="url(#b)" fill="#EDB98A">
          <path d="M-32 0h264v244H-32z"/>
        </g>
        <path d="M156 79v23a56 56 0 11-112 0V79v15a56 56 0 10112 0V79z" fill-opacity=".1" fill="#000" mask="url(#b)"/>
      </g>
      <g transform="translate(0 170)">
        <defs>
          <path d="M166 29.3c37 3 66 34 66 71.8v8.9H32v-9a72 72 0 0167-71.8v1.1c0 12 15 21.5 33.5 21.5S166 42.2 166 30.3v-1z" id="c"/>
        </defs>
        <mask id="d" fill="#fff">
          <use xlink:href="#c"/>
        </mask>
        <use fill="#E6E6E6" xlink:href="#c"/>
        <g mask="url(#d)" fill="#25557C">
          <path d="M0 0h264v110H0z"/>
        </g>
        <g opacity=".6" mask="url(#d)" fill-opacity=".2" fill="#000">
          <ellipse cx="40.5" cy="27.8" rx="39.6" ry="26.9" transform="translate(92 4)"/>
        </g>
      </g>
      <g fill="#000">
        <rect x="42" y="18" width="24" height="6" rx="3" transform="translate(78 134)" fill-opacity=".7"/>
        <path d="M120 130c0 4.4 5.4 8 12 8s12-3.6 12-8" fill-opacity=".2"/>
        <g transform="translate(76 90)" fill-opacity=".6">
          <circle cx="30" cy="22" r="6"/>
          <circle cx="82" cy="22" r="6"/>
        </g>
        <g fill-rule="nonzero" fill-opacity=".6">
          <path d="M91.6 99.2c4-5.6 14.7-8.6 24-6.4a2 2 0 00.9-3.9c-10.8-2.6-23.2 1-28.1 8a2 2 0 003.2 2.3z"/>
          <path d="M172.4 99.2c-4-5.6-14.7-8.6-24-6.4a2 2 0 01-.9-3.9c10.8-2.6 23.2 1 28.1 8a2 2 0 01-3.2 2.3z"/>
        </g>
      </g>
      <defs>
        <path id="e" d="M0 0h264v280H0z"/>
        <path d="M162.8 71.6l.2 4.4v38a56 56 0 01-32 50.6V183h4l3.5.1c-14.9 27.4-18.7 50.5-1 64.4l3.1 2c2.4 1 4.8 2.3 7.5 2.9 4.6 1 10-.4 14.5-1 2.1-.2 4.2-.4 6.4-.4 2.5 0 5.2 0 7.1 1.7 1.9 1.6 1.7 7.2-3.9 9.8 4.1 1.9 9-2.4 10.7-5.2a24.6 24.6 0 003.4-17.6c-1.2-6.8-4.1-13.4-6.1-20-.7-2.6-1.7-5.3-2.1-7.8a22 22 0 01-.1-3.7c0-.4 0-.8 1.4-1.2 3.9-1.1 8-3 10.8-5.5 3.4-3 5.1-7 6.6-11A79.4 79.4 0 00201 167v-2.6c.1-1.3 0-1 1.2-1.8 4.3-3 7.6-7.2 9.8-11.4a24.2 24.2 0 001-20.5 31 31 0 00-11.4-14.8c-2.1-1.4-4.4-2.7-6.6-4-1.2-.6-4-1.6-4.9-2.5-.6-.6.4-3.8.5-4.8.5-4.7 0-9.2-1.2-13.7-2.4-10-12-26.2-15.9-35.7-3.3-8.1-8.1-55.3-65-55-57 .3-67.2 50.2-74.9 59.6C25.4 69.9 17 89.2 22.6 107c-5.5 7-18 17-21.2 27.1-2 6.4-2 13.4.6 19.5a40 40 0 006 9.7c2 2.6 4.4 5.1 6.5 7.8 1.2 1.6 1.5 2 1 4-.9 4-2.8 7.8-4.4 11.5A49 49 0 006 204a36.2 36.2 0 0018.2 32.6l6 3c-1-3.3.2-15.4 2.4-20 .6 1.6 1.5 3.1 2.6 4.5 1.6 2 5.3 7.4 10.1 7.6-2-3-4-5-4.6-8.6 4 2 9.6 3.8 14.2 3.6 3.5-.1 8.5-1.8 11-4-8.4 1.4-16.3-1.4-19.5-7.3-.7-1.2-1.2-2.5-1.5-3.8-.4-2-1-5-.2-6.7.2-.5.6-.9 1-1.3l-.2-.3A105.8 105.8 0 0062.5 185l.1-.1A72.2 72.2 0 0179 183h4v-18.4A56 56 0 0151 114V76c0-2.5.2-4.9.5-7.3l11.9-3.5c4.5-1.2 14.4-3.1 18.3-4l2.7-3 1 2c2.2-.2 14.2-2 14.2-2l1.3-3.2c1.7 1.8 3 2.7 3 2.7a366 366 0 0116.2-.5l9.1.4 1.7-.7.6 1.1c1.4.6 10.2 3.6 12 4.1l2.5-.9c1.1 2.7 4 2.4 6.3 4.5 2.5 2.3 7.2 4 10.5 6z" id="g"/>
      </defs>
      <mask id="f" fill="#fff">
        <use xlink:href="#e"/>
      </mask>
      <g mask="url(#f)">
        <path d="M99.9 42.5a76 76 0 00-31.5 36.3l-3 6.9c-.5 1.5-1.4 3-.6 4.6.6-.3.7-.2.4.3 2.7.8 6.5-1.3 8.8-2 4.8-1.6 9.5-3.1 14.4-4.4 4.5-1.2 14.4-3.1 18.3-4l2.7-3 1 2c2.2-.2 14.2-2 14.2-2l1.3-3.2c1.7 1.8 3 2.7 3 2.7a366 366 0 0116.2-.5l9.1.4 1.7-.7.6 1.1c1.4.6 10.2 3.6 12 4.1l2.5-.9c1.1 2.7 4 2.4 6.3 4.5 3 2.8 9.5 4.8 12.6 7.3l3.2 2.7c1.2 1 1 1.2 1.4 2.4 0 .3 1.2 2.2 1.7 2.3 1.7.6-10.2-30.5-13.4-34.4-3.4-4.1-25.2-31.7-54.2-30.8" fill-opacity=".2" fill="#000"/>
        <g transform="translate(25 16)">
          <mask id="h" fill="#fff">
            <use xlink:href="#g"/>
          </mask>
          <use fill="#361A0A" xlink:href="#g"/>
          <g mask="url(#h)" fill="#2C1B18">
            <path d="M0 0h264v280H0z"/>
          </g>
          <path d="M62.7 184.5c7-9.7-.6-36.7-6.6-46.7 16.9-7.7 50.1-6.2 99.8 4.2a40 40 0 00-5.9 23.8 91.7 91.7 0 00-11.2 17.3l-35 8.6c-22 2.7-35.7.3-41.1-7.2z" fill-opacity=".2" fill="#000" mask="url(#h)"/>
        </g>
        <path d="M78 170a2 2 0 00-.4-.6l.4.7zm-22.6-49.6c.9 6.1 2.3 12 4.5 18 2 5.7 4.4 11.4 7.8 16.7 3.1 4.8 6.9 9.4 10 14.3-.9-1-2.5-2-3.2-2.7a95.6 95.6 0 01-8.3-11 88 88 0 01-7.8-16.2c-4.1-10.8-8.3-23.9-4.6-35.3-.3.7.4 2.5.5 3.3.3 1.4.4 2.8.5 4.3.2 2.8.2 5.7.6 8.6zM68 165c-1.4-1.7-4-3-5.5-4.7a31.4 31.4 0 01-7.7-17.3c.1.5 1 1.4 1.2 1.8l1.8 3.1 3 6.2c2.1 3.8 4.7 7.4 7.2 11zm4.6 18.5A26.6 26.6 0 0176 193c.1.4.1 1.7.3 2.3-2.2-4.3-4-8.9-6.6-13-2.6-4-6-7.7-9.4-11.2-3.7-3.7-7.4-7.2-9.4-11.9-1.7-4-2.4-8.2-2-12.5 0 1.9 1.8 4.6 2.4 6.4.8 2.6 1.5 5.1 2.7 7.5 2.1 4.1 6 7.3 9.2 10.7 3.5 3.8 7 7.8 9.4 12.2zm-14.3-9.3a22 22 0 015 7.3c.5 1.2.7 3.5 1.5 4.5-2.6-3.1-5.2-6.1-7-9.7-.6-1.2-1.6-3-2.2-4.5.2.6 2.2 1.9 2.7 2.4zM48 180.5c2.8 4.3 6.6 8.1 9 12.6a46 46 0 013.2 29c-.2.5-.9 1.9-1 2.7-.3-10.5 1.5-21-4-30.9-2.6-4.6-6.6-8.6-9.7-13-2.8-4-5.5-7.8-7.7-12 1.3 1.7 3.8 3 5.3 4.7 1.9 2.2 3.3 4.6 4.9 7zm11.2 44.3v0zm-9.5-22.3c0 .5.8 1.5 1 2 .5 1.2 1 2.5 1.2 3.8.4 2.5-.2 5.1-1.1 7.6a42 42 0 01-8.6 13.3c1.3-1.8 1.8-4.6 2.8-6.6 1-2 2-4 2.8-6 2-4.6 1.8-9.3 1.9-14.1zm-8.7 18.7c.4-.5.2-3.2.4-3.9.4-1.2 1-2.5 1.9-3.6-.4.7.2 2.5 0 3.4-.4 1.5-1.2 2.9-2.3 4.1zM98.6 42.7l-.2.3.2-.3zM83.8 64.3c1.5-1.2 2.2-4.2 3.2-5.7 1.1-1.9 2.4-3.6 3.6-5.4 2.5-3.5 4.8-7 7.8-10.2-.7 1-1.2 3.8-1.5 4.5a63.3 63.3 0 01-13 16.8zm-.5-10.2c.8-1.3 2-2.4 3.2-3.4-.6.5-.8 2.6-1.2 3.3-.8 1.4-2 2.6-3.2 3.8.6-.6.7-2.8 1.2-3.7zm119.2 98v.3c0-1.5-.7-3.2-.8-4.7-.1-2.2.2-4.3 1-6.4 1.8-4.1 5-7.2 9.3-9.7-1.2.7-2.3 3.3-3 4.3-1.2 1.6-2.3 3.2-3.3 4.9-2 3.4-2.5 7.6-3.2 11.3zm-1.5-21.6a23 23 0 01-2.8 7.3c-.4.8-2 2.4-2 3.2 0-4.9 1.8-9.3 5.2-13.3-.4.7-.3 2-.4 2.8zm-.8 35.2c3.7-.5 7.1 1.3 9.4 3.6 1.3 1.2 2.4 2.6 3 4.1.6 1.1.6 3 1.4 4-1.8-2.5-4.1-4.4-6.4-6.5-1.5-1.5-4.6-5.2-7.4-5.2zm-.8 10.4c-.2 0-2-.6-2.3-.3.6-.3 1.3-.6 2-.7 4.3-.6 9.5 3.1 10 6.7-.4-1.2-3-2.2-4.1-2.8-1.9-1-3.6-2.2-5.6-2.9zm1.8 7.8c.8.2 2.3 1.2 3 1.2-2.9 0-5.5-.3-8.3-1 .1.1 1.7-.4 1.8-.4 1.2-.2 2.4 0 3.5.2zM190 197.8c4.3-.3 9.3.3 13.4 1.4 2 .5 4 1.3 5.7 2.3 1.4.8 4 2 4.9 3.1-3.8-6.4-11.9-9.8-20.2-8.1-1 .2-2.8 1.2-3.8 1.3zm-1 12.4a23.5 23.5 0 0117-.9c-.9-.2-3 .4-3.9.5l-3.9.4-4.8.2c-1.1 0-3.3-.5-4.4-.2zm-10.4 17.2c.2 4 2.5 7.4 5.9 10 3.6 2.9 8.4 4.2 11 8 1.2 1.7 2 3.9 1.8 6 0 1.1-.3 2.2-.6 3.3-.2.7-1 1.9-1 2.6.1-4 .2-8.4-2.6-11.7-2.7-3.3-7.5-4.4-10.8-7.1-3.3-2.7-5.8-6.1-6.3-10-.5-3.1-.3-8.6 3-10.8-.7.4-.5 2.4-.5 3v6.7zm-2.5 15.3c.4.5 2.6 1.1 3.2 1.5a19 19 0 014 2.9 13 13 0 014 8.5c0-.8-1.7-2.5-2.2-3.1-.7-1-1.6-2-2.5-3l-6.5-6.8zm52.2-89c1.2 1.1 2 2.4 2.6 3.8 1.6 3.1 1.9 6.7.6 10 .2-.7-.4-2.2-.5-2.9-.4-1.6-1-3-1.6-4.5-1.2-3-2.1-5.7-4.2-8.2.5.6 2.3 1.3 3 1.9zM170.5 42c0 .3 1 1.3 1.1 1.6a8 8 0 011.1 2.9c.2 1.1 0 2.3-.4 3.4-.2.6-1.2 1.9-1.2 2.5-.1-3.5-.9-6.9-.6-10.4zm7.6 6.8c.2 1.2-.2 2.6-1 3.7.2-.3-.4-2.3-.4-2.7 0-1.2 0-2.4.2-3.6 0 .7 1.1 1.8 1.2 2.6zm-60.7 1.6a35 35 0 01-4.2 4.2c-1 1-3 2-3.7 3a92.4 92.4 0 0112.3-15.7c-.8 1-1 3-1.5 4-.7 1.6-1.8 3-3 4.5zm5.9 2.5c.5-.4 1-2 1.5-2.6a17 17 0 012.6-2.6c-.2.2-.6 2-.8 2.4-.8 1.1-2 2-3.3 2.8z" fill-opacity=".6" fill="#FFF"/>
      </g>
    </g>
  </g>
</svg>