<svg viewBox="0 0 264 280" xmlns="http://www.w3.org/2000/svg" xmlns:xlink="http://www.w3.org/1999/xlink">
  <defs>
    <path d="M124 144.6V163h4a72 72 0 0172 72v9H0v-9a72 72 0 0172-72h4v-18.4A56 56 0 0144.3 100 12 12 0 0134 88V74a12 12 0 0110-11.8V56a56 56 0 11112 0v6.2A12 12 0 01166 74v14c0 6-4.5 11-10.3 11.9a56 56 0 01-31.7 44.7z" id="a"/>
  </defs>
  <g fill="none" fill-rule="evenodd">
    <g mask="url(#mask-4)">
      <g transform="translate(32 36)">
        <mask id="b" fill="#fff">
          <use xlink:href="#a"/>
        </mask>
        <use fill="#D0C6AC" xlink:href="#a"/>
        <g mask="url(#b)" fill="#EDB98A">
          <path d="M-32 0h264v244H-32z"/>
        </g>
        <path d="M156 79v23a56 56 0 11-112 0V79v15a56 56 0 10112 0V79z" fill-opacity=".1" fill="#000" mask="url(#b)"/>
      </g>
      <g transform="translate(0 170)">
        <defs>
          <path d="M105.2 29H104a72 72 0 00-72 72v9h200v-9a72 72 0 00-72-72h-1.2l.2 3c0 13.9-12 25-27 25S105 46 105 32c0-1 0-2 .2-3z" id="c"/>
        </defs>
        <mask id="d" fill="#fff">
          <use xlink:href="#c"/>
        </mask>
        <use fill="#E6E6E6" xlink:href="#c"/>
        <g mask="url(#d)" fill="#262E33">
          <path d="M0 0h264v110H0z"/>
        </g>
        <path d="M100.8 29.1a72 72 0 00-68.8 72v8.9h69.4A155 155 0 0196 68.5c0-14.3 1.7-27.8 4.8-39.4zm62.8 80.9H232v-9a72 72 0 00-67.8-71.8c3 11.6 4.8 25 4.8 39.3 0 15.2-2 29.4-5.4 41.5z" fill="#3A4C5A"/>
        <path d="M181 86l9.6-7.2a4 4 0 014.8 0L202 84l-21 2z" fill="#E6E6E6"/>
        <path d="M101 28c-4 19.3-2.3 46.7 5 82H90L76 74l6-9-6-6 19-30c2-.6 4-1 6-1z" fill="#2F4351"/>
        <path d="M163 28c4 19.3 2.3 46.7-5 82h16l14-36-6-9 6-6-19-30c-2-.6-4-1-6-1z" fill="#2F4351"/>
        <path d="M156 21.5c6.8 4.6 11 11.2 11 18.4 0 7.4-4.4 14-11.5 18.7l-6-4.7-4.5.3 1-3.1V51c6-3.1 10-8.3 10-14.1V21.5zm-48 0c-6.8 4.6-11 11.2-11 18.4 0 7.4 4.4 14 11.5 18.7l6-4.7 4.5.3-1-3.1V51c-6-3.1-10-8.3-10-14.1V21.5z" fill="#F2F2F2"/>
      </g>
      <g fill="#000">
        <g transform="translate(78 134)">
          <defs>
            <path d="M35.1 15.1a19 19 0 0037.8 0c0-.8-.8-2.1-1.9-2.1H37c-1 0-2 1.2-1.9 2.1z" id="e"/>
          </defs>
          <mask id="f" fill="#fff">
            <use xlink:href="#e"/>
          </mask>
          <use fill-opacity=".7" xlink:href="#e"/>
          <rect fill="#FFF" mask="url(#f)" x="39" y="2" width="31" height="16" rx="5"/>
          <g mask="url(#f)" fill="#FF4F6D">
            <g transform="translate(38 24)">
              <circle cx="11" cy="11" r="11"/>
              <circle cx="21" cy="11" r="11"/>
            </g>
          </g>
        </g>
        <path d="M120 130c0 4.4 5.4 8 12 8s12-3.6 12-8" fill-opacity=".2"/>
        <g transform="translate(76 90)" fill-opacity=".6">
          <circle cx="30" cy="22" r="6"/>
          <circle cx="82" cy="22" r="6"/>
        </g>
        <g fill-opacity=".6">
          <path d="M120 99.1c.1 0 .1 0 0 0m-24.7-12c-2.4-.4-4.9.4-6.4 2.3-.6.8-1.6 2.5-1.6 3.5 0 .3.3.3 1.2.5 1.6.4 4.5-1 6.3-1 2.6.3 5 1.5 7.3 2.8 3.8 2.2 8.4 6.8 13.1 6.6.4 0 5.4-1.8 4.4-2.8-.3-.5-3-1.1-3.5-1.3-2.2-1.1-4.4-2.5-6.4-3.8-4.6-2.7-9-6.3-14.4-6.9"/>
          <path d="M169 87.1c2.3-.4 4.8.4 6.3 2.3.6.8 1.6 2.5 1.5 3.5 0 .3-.2.3-1 .5-1.7.4-4.6-1-6.4-1-2.6.3-5 1.5-7.3 2.8-3.9 2.2-8.4 6.8-13.1 6.6-.4 0-5.4-1.8-4.4-2.8.3-.5 3-1.1 3.5-1.3 2.1-1.1 4.3-2.5 6.4-3.8 4.5-2.7 9-6.3 14.4-6.9"/>
        </g>
      </g>
      <defs>
        <path id="g" d="M0 0h264v280H0z"/>
        <path d="M183.7 39c5.4-5 6.7-15 3.6-21.6-3.8-8-11.4-9-18.7-5.4a30 30 0 01-20.6 2.8c-7.3-1.6-14.2-4.3-21.7-4.7a40.6 40.6 0 00-32.7 13 35.8 35.8 0 00-4.1 5.8c-1 1.7-2 3.4-2.5 5.3-.2.9.2 3-.3 3.8-.5.8-2.3 1.5-3 2.1a25 25 0 00-4.2 4A29.2 29.2 0 0074 54.8a64.3 64.3 0 00.9 42c.7 1.8 2.9 5.4 4.1 1.7.3-.7-.3-3.2-.3-4 0-2.7 1.5-20.7 8-30.8 2.2-3.3 12-15.5 14-15.6 1.1 1.6 12 12.5 40 11.2a42 42 0 0024.7-8.7c1 5.5 13 13.8 14.8 17.2 5.3 9.8 6.5 30.3 8.5 30.3s3.4-5.3 3.8-6.3a60 60 0 003.3-24.5 41.6 41.6 0 00-12.2-28.3z" id="i"/>
      </defs>
      <mask id="h" fill="#fff">
        <use xlink:href="#g"/>
      </mask>
      <g mask="url(#h)">
        <g transform="translate(-1)">
          <mask id="j" fill="#fff">
            <use xlink:href="#i"/>
          </mask>
          <use fill="#28354B" xlink:href="#i"/>
          <g mask="url(#j)" fill="#2C1B18">
            <path d="M0 0h264v280H0z"/>
          </g>
        </g>
      </g>
    </g>
  </g>
</svg>