<svg viewBox="0 0 264 280" xmlns="http://www.w3.org/2000/svg" xmlns:xlink="http://www.w3.org/1999/xlink">
  <defs>
    <path d="M124 144.6V163h4a72 72 0 0172 72v9H0v-9a72 72 0 0172-72h4v-18.4A56 56 0 0144.3 100 12 12 0 0134 88V74a12 12 0 0110-11.8V56a56 56 0 11112 0v6.2A12 12 0 01166 74v14c0 6-4.5 11-10.3 11.9a56 56 0 01-31.7 44.7z" id="a"/>
  </defs>
  <g fill="none" fill-rule="evenodd">
    <g mask="url(#mask-4)">
      <g transform="translate(32 36)">
        <mask id="b" fill="#fff">
          <use xlink:href="#a"/>
        </mask>
        <use fill="#D0C6AC" xlink:href="#a"/>
        <g mask="url(#b)" fill="#AE5D29">
          <path d="M-32 0h264v244H-32z"/>
        </g>
        <path d="M156 79v23a56 56 0 11-112 0V79v15a56 56 0 10112 0V79z" fill-opacity=".1" fill="#000" mask="url(#b)"/>
      </g>
      <g transform="translate(0 170)">
        <defs>
          <path d="M166 29.3c37 3 66 34 66 71.8v8.9H32v-9a72 72 0 0167-71.8v1.1c0 12 15 21.5 33.5 21.5S166 42.2 166 30.3v-1z" id="c"/>
        </defs>
        <mask id="d" fill="#fff">
          <use xlink:href="#c"/>
        </mask>
        <use fill="#E6E6E6" xlink:href="#c"/>
        <g mask="url(#d)" fill="#25557C">
          <path d="M0 0h264v110H0z"/>
        </g>
        <g opacity=".6" mask="url(#d)" fill-opacity=".2" fill="#000">
          <ellipse cx="40.5" cy="27.8" rx="39.6" ry="26.9" transform="translate(92 4)"/>
        </g>
      </g>
      <g fill="#000">
        <path d="M118 149a14 14 0 1028 0" fill-opacity=".7"/>
        <path d="M120 130c0 4.4 5.4 8 12 8s12-3.6 12-8" fill-opacity=".2"/>
        <g transform="translate(76 90)" fill-opacity=".6">
          <circle cx="30" cy="22" r="6"/>
          <circle cx="82" cy="22" r="6"/>
        </g>
        <g fill-opacity=".6">
          <path d="M102.5 88.1c-5.8.3-15.1 4.5-15 10.4.1.2.4.3.5.1 2.8-3 22.3-6 29.2-4.3.7.1 1.1-.5.7-1-3.4-3.8-10.2-5.4-15.4-5.2"/>
          <path d="M162.5 88.1c5.8.3 15.1 4.5 15 10.4-.1.2-.4.3-.5.1-2.8-3-22.3-6-29.2-4.3-.7.1-1.1-.5-.7-1 3.4-3.8 10.2-5.4 15.4-5.2"/>
        </g>
      </g>
      <defs>
        <path id="e" d="M0 0h264v280H0z"/>
        <path d="M6 28c-5 0-6-1-6-5C0 17.3 4 6.8 8 2c1.2-2.2 3.6-3.4 3 1-2.7 8.5.4 25-5 25zm114 0c-5.4 0-2.3-16.5-5-25-.6-4.4 1.8-3.2 3-1 4 4.8 8 15.3 8 21 0 4-1 5-6 5z" id="i"/>
      </defs>
      <mask id="f" fill="#fff">
        <use xlink:href="#e"/>
      </mask>
      <g mask="url(#f)">
        <g transform="translate(48 72)">
          <defs>
            <path d="M101.4 98.2c-2.5 2.3-5.2 3.3-8.5 2.6-.6-.2-3-4.6-8.9-4.6s-8.3 4.4-8.9 4.6c-3.3.7-6-.3-8.5-2.6-4.8-4.3-8.7-10.3-6.3-16.8 1.2-3.4 3.2-7 6.9-8.2 3.8-1.1 9.3 0 13.2-.7 1.3-.3 2.7-.7 3.6-1.5 1 .8 2.3 1.2 3.6 1.5 3.9.7 9.4-.4 13.2.7 3.7 1.1 5.7 4.8 7 8.2 2.3 6.5-1.6 12.5-6.4 16.8M140.1 26c-3.4 8.4-2.1 18.9-2.7 27.7-.6 7.1-2 17.9-8.4 22.5-3.3 2.4-9.2 6.4-13.5 5.3-2.9-.8-3.2-9.2-7-12.4A22.4 22.4 0 0093 64.3c-2.3 0-7.1 0-9.1 1.9-2-1.9-6.8-1.8-9.1-2-5.5-.2-11 1.4-15.4 5-3.8 3-4.1 11.5-7 12.3-4.3 1-10.2-3-13.5-5.3-6.3-4.6-7.8-15.4-8.4-22.5-.6-8.8.7-19.3-2.7-27.7-1.6 0-.5 16.1-.5 16.1v20.4A53 53 0 0058 109.4c5.2 2.1 17 5.6 25.9 5.6 9 0 20.7-3.1 25.9-5.3 21.2-8.7 30.7-32 30.7-47.2V42s1.1-16.1-.5-16.1" id="g"/>
          </defs>
          <mask id="h" fill="#fff">
            <use xlink:href="#g"/>
          </mask>
          <use fill="#331B0C" xlink:href="#g"/>
          <g mask="url(#h)" fill="#ECDCBF">
            <path d="M-32 0h264v244H-32z"/>
          </g>
        </g>
        <g transform="translate(69 74)">
          <mask id="j" fill="#fff">
            <use xlink:href="#i"/>
          </mask>
          <use fill="#9E7A7A" xlink:href="#i"/>
          <g mask="url(#j)" fill="#E8E1E1">
            <path d="M0 0h264v280H0z"/>
          </g>
        </g>
      </g>
    </g>
  </g>
</svg>